<svg width="662" height="254" xmlns="http://www.w3.org/2000/svg">
 <title>Imported Layers</title>

 <g>
  <title>Layer 1</title>
  <g stroke="null" id="svg_1" fill-rule="evenodd" fill="none">
   <path stroke="null" id="svg_2" fill="#636462" d="m118.7918,83.72815c0.15077,3.59919 -2.58258,6.64066 -6.10614,6.79488c-3.5209,0.15423 -6.49903,-2.63797 -6.64979,-6.23626c-0.15077,-3.59919 2.58081,-6.64155 6.10348,-6.79667c3.5209,-0.15243 6.5008,2.63976 6.65157,6.23806"/>
   <path stroke="null" id="svg_3" fill="#E46E2E" d="m79.70009,171.03404c-19.52457,0 -36.52775,-7.17058 -45.37966,-17.76281c6.69857,18.98944 24.48664,32.56665 45.37966,32.56665c20.89479,0 38.68197,-13.57721 45.38143,-32.56665c-8.85279,10.59223 -25.85598,17.76281 -45.38143,17.76281m0,-68.94231c19.52546,0 36.52864,7.16879 45.38143,17.76281c-6.70035,-18.99303 -24.48841,-32.56845 -45.38321,-32.56845c-20.89125,0 -38.67931,13.57542 -45.37788,32.56665c8.85102,-10.59403 25.85509,-17.76281 45.37966,-17.76281"/>
   <path stroke="null" id="svg_4" fill="#8A8B8A" d="m54.73898,191.40613c0.18092,4.33086 -3.1085,7.99282 -7.34777,8.17932c-4.23927,0.18561 -7.82224,-3.17597 -8.00317,-7.50683c-0.1827,-4.33086 3.10673,-7.99371 7.34599,-8.17932c4.23927,-0.18471 7.8249,3.17597 8.00671,7.50773"/>
   <path stroke="null" id="svg_5" fill="#4D4D4C" d="m44.15678,92.73778c0.11175,2.63887 -1.89348,4.87065 -4.47606,4.98273c-2.58258,0.11298 -4.76607,-1.93409 -4.87782,-4.57296c-0.11086,-2.63976 1.89348,-4.87155 4.47695,-4.98363c2.58258,-0.11477 4.76607,1.9323 4.87782,4.57296"/>
   <path stroke="null" id="svg_6" fill="#343433" d="m178.55393,143.10939c0,18.91233 -1.43674,25.10824 -5.26538,29.67313c-3.35062,3.75072 -8.93527,5.54315 -15.31989,6.03451l1.43674,11.24859c7.49942,0 17.71268,-2.60928 23.93678,-8.96659c6.86087,-7.17327 9.25544,-17.11991 9.25544,-32.4465l0,-71.57939l-14.04368,0l0,66.03624m104.84202,-8.6411c0,8.15063 0.15964,15.32569 0.63855,21.51981l-12.4473,0l-0.79819,-12.87871l-0.31928,0c-3.67167,6.35731 -11.80786,14.67293 -25.53138,14.67293c-12.12803,0 -26.65062,-6.84599 -26.65062,-34.56262l0,-46.14655l14.04368,0l0,43.69778c0,15.0011 4.46808,25.11004 17.23466,25.11004c9.41419,0 15.95667,-6.68549 18.5091,-13.04639c0.79819,-2.11612 1.2771,-4.72539 1.2771,-7.33467l0,-48.42676l14.04368,0l0,57.39514m26.49098,-31.63233c0,-10.10804 -0.31928,-18.26136 -0.63855,-25.76101l12.60694,0l0.63855,13.53238l0.31928,0c5.74429,-9.61936 14.84098,-15.32659 27.44703,-15.32659c18.67051,0 32.71241,16.14345 32.71241,40.11204c0,28.37029 -16.91449,42.39135 -35.10609,42.39135c-10.21237,0 -19.14765,-4.56399 -23.77714,-12.39183l-0.31928,0l0,42.88271l-13.88315,0l0,-85.43905zm13.88493,21.03383c0,2.1197 0.31928,4.07531 0.63855,5.86953c2.5542,9.94395 11.01056,16.79442 21.0633,16.79442c14.84098,0 23.45786,-12.39183 23.45786,-30.49089c0,-15.81348 -8.13886,-29.34765 -22.97895,-29.34765c-9.57471,0 -18.51087,7.01187 -21.22294,17.77178c-0.47891,1.79332 -0.95783,3.91392 -0.95783,5.87043l0,13.53238zm84.09711,-46.79663l16.91449,46.63254c1.75601,5.21856 3.66989,11.41447 4.94877,16.14255l0.3175,0c1.43674,-4.72898 3.03312,-10.7617 4.94611,-16.46894l15.319,-46.30616l14.84098,0l-21.0633,56.2528c-10.05362,27.06475 -16.91538,40.92351 -26.4892,49.40322c-6.86264,6.19591 -13.7244,8.642 -17.23466,9.29297l-3.51203,-12.06455c3.51203,-1.14145 8.13975,-3.42524 12.28855,-7.01187c3.82776,-3.09796 8.616,-8.6411 11.80698,-15.97846c0.63855,-1.46604 1.11746,-2.60928 1.11746,-3.42344c0,-0.81596 -0.31928,-1.95651 -0.95783,-3.74983l-28.56361,-72.71904l15.319,0m94.21902,-22.66395l0,22.66216l20.10547,0l0,10.92579l-20.10547,0l0,42.55543c0,9.78255 2.71384,15.32659 10.53254,15.32659c3.669,0 6.38196,-0.49047 8.13708,-0.97736l0.63855,10.75991c-2.71207,1.14055 -7.0214,1.95472 -12.44641,1.95472c-6.54337,0 -11.80875,-2.11612 -15.16025,-6.03093c-3.99094,-4.2394 -5.42768,-11.25128 -5.42768,-20.54515l0,-43.04501l-11.9675,0l0,-10.924l11.96839,0l0,-18.91054l13.72706,-3.75162m45.9579,64.72981c0.31928,19.40191 12.4473,27.39293 26.49098,27.39293c10.05185,0 16.11453,-1.79332 21.38257,-4.078l2.39279,10.27213c-4.94699,2.28289 -13.40335,4.89127 -25.69102,4.89127c-23.77714,0 -37.97957,-15.97846 -37.97957,-39.78476c0,-23.8045 13.72352,-42.55543 36.22355,-42.55543c25.21388,0 31.91511,22.66306 31.91511,37.17548c0,2.93476 -0.31928,5.21856 -0.47891,6.68459l-54.25551,0l0,0.00179zm41.16877,-10.27213c0.16141,-9.13157 -3.66812,-23.31672 -19.46692,-23.31672c-14.20154,0 -20.42475,13.36919 -21.54221,23.31672l41.00913,0zm34.15359,-7.17327c0,-9.29387 -0.15964,-17.284 -0.63855,-24.62225l12.28678,0l0.47891,15.49158l0.63855,0c3.51025,-10.59851 11.9675,-17.284 21.38257,-17.284c1.59638,0 2.71384,0.16499 3.99094,0.49316l0,13.53058c-1.43674,-0.32549 -2.87348,-0.48868 -4.78913,-0.48868c-9.89399,0 -16.91272,7.66285 -18.82837,18.42365c-0.31928,1.95741 -0.63855,4.2412 -0.63855,6.68549l0,42.06675l-13.88404,0l0,-54.29629"/>
   <path stroke="null" id="svg_7" fill="#E46E2E" d="m162.35248,253.17697l6.32165,0l0,-21.13604c0,-1.08944 0.14367,-2.17888 0.43102,-2.97691c1.07933,-3.55974 4.31022,-6.53664 8.47853,-6.53664c5.96247,0 8.04396,4.72001 8.04396,10.3851l0,20.26449l6.32342,0l0,-20.99079c0,-12.05648 -7.47104,-14.96165 -12.28323,-14.96165c-5.74695,0 -9.77071,3.26832 -11.49391,6.60838l-0.14456,0l-0.35918,-5.81035l-5.60239,0c0.21551,2.90518 0.28735,5.88388 0.28735,9.51534l0,25.63817l-0.00266,0.0009zm45.04176,0l0.28735,-5.81035l0.21551,0c2.5879,4.64738 6.61077,6.60838 11.63936,6.60838c7.75839,0 15.58862,-6.24613 15.58862,-18.8119c0.07095,-10.67562 -6.03342,-17.93856 -14.65385,-17.93856c-5.60328,0 -9.62615,2.54203 -11.85309,6.46491l-0.1419,0l0,-22.07933l-6.2507,0l0,42.48639c0,3.12306 -0.14367,6.6819 -0.28735,9.07867l5.45961,0l-0.00355,0.00179zm1.07755,-20.40975c0,-1.01681 0.21285,-1.88836 0.35741,-2.61466c1.29306,-4.86617 5.31593,-7.84397 9.62615,-7.84397c6.75267,0 10.34452,6.02824 10.34452,13.07329c0,8.06096 -3.95014,13.50906 -10.55914,13.50906c-4.59756,0 -8.26125,-3.05043 -9.48248,-7.48083c-0.14367,-0.72629 -0.28735,-1.52432 -0.28735,-2.32414l0,-6.31876l0.00089,0zm30.31341,-14.74376l13.218,35.15262l6.0343,0l13.64902,-35.15441l-6.60988,0l-6.75267,19.75519c-1.1485,3.19569 -2.15511,6.10087 -2.94443,9.00604l-0.21551,0c-0.71837,-2.90518 -1.65314,-5.81035 -2.80253,-9.00515l-6.82451,-19.75519l-6.75267,0l0.00089,0.0009zm45.18632,35.15262l0,-35.15441l-6.32342,0l0,35.15262l6.32342,0l0,0.00179zm-3.16171,-49.02662c-2.29878,0 -3.95103,1.74311 -3.95103,3.99462c0,2.17888 1.5813,3.92109 3.80824,3.92109c2.51429,0 4.09471,-1.74221 4.02287,-3.92109c0,-2.25241 -1.50769,-3.99551 -3.87919,-3.99551l-0.00089,0.0009zm41.59447,32.61149c0.07095,-0.65456 0.21462,-1.67137 0.21462,-2.9787c0,-6.46491 -3.01715,-16.5586 -14.36739,-16.5586c-10.12812,0 -16.30698,8.35238 -16.30698,18.95537c0,10.60479 6.39437,17.72246 17.09896,17.72246c5.53056,0 9.3388,-1.16297 11.56486,-2.17888l-1.07755,-4.57655c-2.37062,1.01681 -5.09954,1.81573 -9.62615,1.81573c-6.31988,0 -11.77948,-3.55974 -11.92316,-12.20174l24.42456,0l-0.00177,0.0009zm-24.35361,-4.57655c0.50286,-4.4295 3.3045,-10.3869 9.69799,-10.3869c7.11274,0 8.83683,6.31876 8.76499,10.386l-18.46209,0l-0.00089,0.0009zm28.44743,-14.16362l10.48908,35.15262l5.74695,0l5.60328,-16.70476c1.22123,-3.77762 2.29878,-7.40909 3.16083,-11.6207l0.1419,0c0.86293,4.13898 1.86865,7.62519 3.08988,11.54717l5.31593,16.77649l5.74695,0l11.20568,-35.15172l-6.24981,0l-4.95764,17.64894c-1.1485,4.13987 -2.08238,7.84397 -2.65708,11.40281l-0.21551,0c-0.79109,-3.55974 -1.79681,-7.26294 -3.08988,-11.47544l-5.38777,-17.57631l-5.31505,0l-5.676,17.93946c-1.1485,3.77673 -2.29701,7.55346 -3.0881,11.11229l-0.21551,0c-0.64742,-3.63147 -1.58041,-7.26294 -2.58613,-11.18492l-4.59756,-17.86683l-6.46532,0l0.00089,0.0009zm84.76758,18.73838c0.07095,-0.65456 0.2164,-1.67048 0.2164,-2.97691c0,-6.46491 -3.01715,-16.56129 -14.36739,-16.56129c-10.12812,0 -16.30698,8.35327 -16.30698,18.95716c0,10.60389 6.39437,17.72157 17.09719,17.72157c5.53144,0 9.3388,-1.16297 11.56486,-2.17888l-1.07667,-4.57655c-2.36973,1.01681 -5.09954,1.81573 -9.62526,1.81573c-6.32165,0 -11.78126,-3.55974 -11.92493,-12.20174l24.42456,0l-0.00177,0.0009zm-24.35361,-4.57565c0.50552,-4.4295 3.30627,-10.3869 9.69976,-10.3869c7.11274,0 8.83594,6.31876 8.76411,10.386l-18.46387,0l0,0.0009zm32.40023,20.99079l6.24981,0l0,-18.74017c0,-1.08944 0.14456,-2.10715 0.28823,-2.97691c0.86204,-4.79444 4.02287,-8.20802 8.47676,-8.20802c0.86204,0 1.50769,0.07173 2.15511,0.21789l0,-6.02913c-0.5747,-0.14526 -1.07755,-0.21789 -1.79592,-0.21789c-4.23927,0 -8.04574,2.97691 -9.62615,7.69871l-0.28735,0l-0.21551,-6.90069l-5.53144,0c0.21551,3.26832 0.28735,6.82716 0.28735,10.96614l0,24.18648l-0.00089,0.00359z"/>
  </g>
  <text font-weight="normal" font-style="normal" transform="matrix(3.50091 0 0 3.33333 -5.43166 0)" stroke="#000" xml:space="preserve" text-anchor="start" font-family="sans-serif" font-size="24" stroke-width="0" id="svg_12" y="19.5625" x="2.70625" fill="#e57104">View on</text>
 </g>
</svg>