<svg width="708" height="223" xmlns="http://www.w3.org/2000/svg">
 <title>Imported Layers</title>

 <g>
  <title>Layer 1</title>
  <g id="svg_1" fill-rule="evenodd" fill="none">
   <path id="svg_2" fill="#636462" d="m95.56,32.732c0.17,4.014 -2.912,7.406 -6.885,7.578c-3.97,0.172 -7.328,-2.942 -7.498,-6.955c-0.17,-4.014 2.91,-7.407 6.882,-7.58c3.97,-0.17 7.33,2.944 7.5,6.957"/>
   <path id="svg_3" fill="#E46E2E" d="m51.482,130.1c-22.015,0 -41.187,-7.997 -51.168,-19.81c7.553,21.178 27.61,36.32 51.168,36.32c23.56,0 43.616,-15.142 51.17,-36.32c-9.982,11.813 -29.154,19.81 -51.17,19.81m0,-76.888c22.016,0 41.188,7.995 51.17,19.81c-7.555,-21.182 -27.612,-36.322 -51.172,-36.322c-23.556,0 -43.613,15.14 -51.166,36.32c9.98,-11.815 29.153,-19.81 51.168,-19.81"/>
   <path id="svg_4" fill="#8A8B8A" d="m23.337,152.82c0.204,4.83 -3.505,8.914 -8.285,9.122c-4.78,0.207 -8.82,-3.542 -9.024,-8.372c-0.206,-4.83 3.503,-8.915 8.283,-9.122c4.78,-0.206 8.823,3.542 9.028,8.373"/>
   <path id="svg_5" fill="#4D4D4C" d="m11.405,42.78c0.126,2.943 -2.135,5.432 -5.047,5.557c-2.912,0.126 -5.374,-2.157 -5.5,-5.1c-0.125,-2.944 2.135,-5.433 5.048,-5.558c2.912,-0.128 5.374,2.155 5.5,5.1"/>
   <path id="svg_6" fill="#343433" d="m162.945,98.957c0,21.092 -1.62,28.002 -5.937,33.093c-3.778,4.183 -10.075,6.182 -17.274,6.73l1.62,12.545c8.456,0 19.972,-2.91 26.99,-10c7.736,-8 10.436,-19.093 10.436,-36.186l0,-79.829l-15.835,0l0,73.647m118.215,-9.637c0,9.09 0.18,17.092 0.72,24l-14.035,0l-0.9,-14.363l-0.36,0c-4.14,7.09 -13.314,16.364 -28.788,16.364c-13.675,0 -30.05,-7.635 -30.05,-38.546l0,-51.465l15.835,0l0,48.734c0,16.73 5.038,28.004 19.433,28.004c10.615,0 17.992,-7.456 20.87,-14.55c0.9,-2.36 1.44,-5.27 1.44,-8.18l0,-54.008l15.835,0l0,64.01m29.87,-35.278c0,-11.273 -0.36,-20.366 -0.72,-28.73l14.215,0l0.72,15.092l0.36,0c6.477,-10.728 16.734,-17.093 30.948,-17.093c21.052,0 36.885,18.004 36.885,44.735c0,31.64 -19.072,47.277 -39.584,47.277c-11.515,0 -21.59,-5.09 -26.81,-13.82l-0.36,0l0,47.825l-15.654,0l0,-95.286zm15.656,23.458c0,2.364 0.36,4.545 0.72,6.546c2.88,11.09 12.415,18.73 23.75,18.73c16.734,0 26.45,-13.82 26.45,-34.005c0,-17.636 -9.177,-32.73 -25.91,-32.73c-10.796,0 -20.872,7.82 -23.93,19.82c-0.54,2 -1.08,4.365 -1.08,6.547l0,15.092zm94.824,-52.19l19.072,52.007c1.98,5.82 4.138,12.73 5.58,18.003l0.358,0c1.62,-5.274 3.42,-12.002 5.577,-18.367l17.273,-51.643l16.734,0l-23.75,62.736c-11.336,30.184 -19.073,45.64 -29.868,55.097c-7.738,6.91 -15.475,9.638 -19.433,10.364l-3.96,-13.455c3.96,-1.273 9.178,-3.82 13.856,-7.82c4.316,-3.455 9.715,-9.637 13.313,-17.82c0.72,-1.635 1.26,-2.91 1.26,-3.818c0,-0.91 -0.36,-2.182 -1.08,-4.182l-32.207,-81.1l17.273,0m106.237,-25.276l0,25.274l22.67,0l0,12.185l-22.67,0l0,47.46c0,10.91 3.06,17.093 11.876,17.093c4.137,0 7.196,-0.547 9.175,-1.09l0.72,12c-3.058,1.272 -7.917,2.18 -14.034,2.18c-7.378,0 -13.315,-2.36 -17.094,-6.726c-4.5,-4.728 -6.12,-12.548 -6.12,-22.913l0,-48.006l-13.494,0l0,-12.183l13.495,0l0,-21.09l15.478,-4.184m51.82,72.19c0.36,21.638 14.035,30.55 29.87,30.55c11.334,0 18.17,-2 24.11,-4.548l2.698,11.456c-5.578,2.546 -15.113,5.455 -28.968,5.455c-26.81,0 -42.824,-17.82 -42.824,-44.37c0,-26.548 15.474,-47.46 40.844,-47.46c28.43,0 35.986,25.275 35.986,41.46c0,3.273 -0.36,5.82 -0.54,7.455l-61.176,0l0,0.002zm46.42,-11.456c0.182,-10.184 -4.136,-26.004 -21.95,-26.004c-16.013,0 -23.03,14.91 -24.29,26.004l46.24,0zm38.51,-8c0,-10.365 -0.18,-19.276 -0.72,-27.46l13.854,0l0.54,17.277l0.72,0c3.958,-11.82 13.494,-19.276 24.11,-19.276c1.8,0 3.06,0.184 4.5,0.55l0,15.09c-1.62,-0.363 -3.24,-0.545 -5.4,-0.545c-11.156,0 -19.07,8.546 -21.23,20.547c-0.36,2.183 -0.72,4.73 -0.72,7.456l0,46.915l-15.655,0l0,-60.554"/>
   <path id="svg_7" fill="#E46E2E" d="m144.677,221.71l7.128,0l0,-23.572c0,-1.215 0.162,-2.43 0.486,-3.32c1.217,-3.97 4.86,-7.29 9.56,-7.29c6.723,0 9.07,5.264 9.07,11.582l0,22.6l7.13,0l0,-23.41c0,-13.446 -8.424,-16.686 -13.85,-16.686c-6.48,0 -11.017,3.645 -12.96,7.37l-0.163,0l-0.405,-6.48l-6.317,0c0.243,3.24 0.324,6.562 0.324,10.612l0,28.593l-0.003,0.001zm50.787,0l0.324,-6.48l0.243,0c2.918,5.183 7.454,7.37 13.124,7.37c8.748,0 17.577,-6.966 17.577,-20.98c0.08,-11.906 -6.803,-20.006 -16.523,-20.006c-6.318,0 -10.854,2.835 -13.365,7.21l-0.16,0l0,-24.624l-7.048,0l0,47.383c0,3.483 -0.162,7.452 -0.324,10.125l6.156,0l-0.004,0.002zm1.215,-22.762c0,-1.134 0.24,-2.106 0.403,-2.916c1.458,-5.427 5.994,-8.748 10.854,-8.748c7.614,0 11.664,6.723 11.664,14.58c0,8.99 -4.454,15.066 -11.906,15.066c-5.184,0 -9.315,-3.402 -10.692,-8.343c-0.162,-0.81 -0.324,-1.7 -0.324,-2.592l0,-7.047l0.001,0zm34.18,-16.443l14.904,39.204l6.804,0l15.39,-39.206l-7.453,0l-7.614,22.032c-1.295,3.564 -2.43,6.804 -3.32,10.044l-0.243,0c-0.81,-3.24 -1.864,-6.48 -3.16,-10.043l-7.695,-22.032l-7.614,0l0.001,0.001zm50.95,39.204l0,-39.206l-7.13,0l0,39.204l7.13,0l0,0.002zm-3.565,-54.677c-2.592,0 -4.455,1.944 -4.455,4.455c0,2.43 1.783,4.373 4.294,4.373c2.835,0 4.617,-1.943 4.536,-4.373c0,-2.512 -1.7,-4.456 -4.374,-4.456l-0.001,0.001zm46.9,36.37c0.08,-0.73 0.242,-1.864 0.242,-3.322c0,-7.21 -3.402,-18.467 -16.2,-18.467c-11.42,0 -18.387,9.315 -18.387,21.14c0,11.827 7.21,19.765 19.28,19.765c6.236,0 10.53,-1.297 13.04,-2.43l-1.215,-5.104c-2.673,1.134 -5.75,2.025 -10.854,2.025c-7.126,0 -13.282,-3.97 -13.444,-13.608l27.54,0l-0.002,0.001zm-27.46,-5.104c0.567,-4.94 3.726,-11.584 10.935,-11.584c8.02,0 9.964,7.047 9.883,11.583l-20.817,0l-0.001,0.001zm32.076,-15.796l11.827,39.204l6.48,0l6.318,-18.63c1.377,-4.213 2.592,-8.263 3.564,-12.96l0.16,0c0.973,4.616 2.107,8.504 3.484,12.878l5.994,18.71l6.48,0l12.635,-39.203l-7.047,0l-5.59,19.683c-1.295,4.617 -2.348,8.748 -2.996,12.717l-0.243,0c-0.892,-3.97 -2.026,-8.1 -3.484,-12.798l-6.075,-19.602l-5.993,0l-6.4,20.007c-1.295,4.212 -2.59,8.424 -3.482,12.393l-0.243,0c-0.73,-4.05 -1.782,-8.1 -2.916,-12.474l-5.184,-19.926l-7.29,0l0.001,0.001zm95.58,20.898c0.08,-0.73 0.244,-1.863 0.244,-3.32c0,-7.21 -3.402,-18.47 -16.2,-18.47c-11.42,0 -18.387,9.316 -18.387,21.142c0,11.826 7.21,19.764 19.278,19.764c6.237,0 10.53,-1.297 13.04,-2.43l-1.214,-5.104c-2.672,1.134 -5.75,2.025 -10.853,2.025c-7.128,0 -13.284,-3.97 -13.446,-13.608l27.54,0l-0.002,0.001zm-27.46,-5.103c0.57,-4.94 3.728,-11.584 10.937,-11.584c8.02,0 9.963,7.047 9.882,11.583l-20.819,0l0,0.001zm36.533,23.41l7.047,0l0,-20.9c0,-1.215 0.163,-2.35 0.325,-3.32c0.972,-5.347 4.536,-9.154 9.558,-9.154c0.972,0 1.7,0.08 2.43,0.243l0,-6.724c-0.648,-0.162 -1.215,-0.243 -2.025,-0.243c-4.78,0 -9.072,3.32 -10.854,8.586l-0.324,0l-0.243,-7.696l-6.237,0c0.243,3.645 0.324,7.614 0.324,12.23l0,26.974l-0.001,0.004z"/>
  </g>
  <text xml:space="preserve" text-anchor="start" font-family="sans-serif" font-size="24" stroke-width="0" id="svg_12" y="-40.5" x="3.5" stroke="#000" fill="#ff7f00">View on</text>
 </g>
</svg>